<svg width="17" height="20" viewBox="0 0 17 20" fill="none" xmlns="http://www.w3.org/2000/svg">
<g clip-path="url(#clip0_2033_307)">
<path d="M4.85208 5.9C4.85208 3.64167 6.69375 2.5 8.67 2.5C9.83167 2.5 10.795 2.90833 11.4325 3.56667C11.9779 4.10833 12.4667 5.00833 12.4667 6.26667H10.3346C10.3346 6.00833 10.2992 5.775 10.2283 5.55833C10.0229 4.84167 9.37833 4.49167 8.63458 4.49167C7.31708 4.49167 6.97708 5.34167 6.97708 5.90833C6.97708 6.30833 7.15417 6.64167 7.50125 6.91667C7.77042 7.125 8.04667 7.31667 8.5 7.5H5.23458C5.08583 7.21667 4.85208 6.75833 4.85208 5.9ZM14.875 10V8.33333H2.125V10H8.93917C9.75375 10.375 10.3275 10.625 10.3275 11.6417C10.3275 12.475 9.75375 13.0333 8.7125 13.0333C7.62167 13.0333 6.63708 12.5833 6.63708 10.9417H4.53333C4.53333 11.4 4.59 11.8833 4.70333 12.2583C5.27708 14.1667 7.03375 15.0083 8.71958 15.0083C10.3275 15.0083 12.4738 14.2667 12.4738 11.6333C12.4738 11.3833 12.4667 10.6667 12.1337 10.0167H14.875V10Z" fill="white" fill-opacity="0.7"/>
</g>
<defs>
<clipPath id="clip0_2033_307">
<rect width="17" height="20" fill="white"/>
</clipPath>
</defs>
</svg>
