<svg width="18" height="20" viewBox="0 0 18 20" fill="none" xmlns="http://www.w3.org/2000/svg">
<g clip-path="url(#clip0_2033_301)">
<path d="M11.7 8.99165C12.4275 8.43331 12.9375 7.51665 12.9375 6.66665C12.9375 4.78331 11.625 3.33331 9.9375 3.33331H5.25V15H10.53C12.0975 15 13.3125 13.5833 13.3125 11.8416C13.3125 10.575 12.6675 9.49165 11.7 8.99165ZM7.5 5.41665H9.75C10.3725 5.41665 10.875 5.97498 10.875 6.66665C10.875 7.35831 10.3725 7.91665 9.75 7.91665H7.5V5.41665ZM10.125 12.9166H7.5V10.4166H10.125C10.7475 10.4166 11.25 10.975 11.25 11.6666C11.25 12.3583 10.7475 12.9166 10.125 12.9166Z" fill="white" fill-opacity="0.7"/>
</g>
<defs>
<clipPath id="clip0_2033_301">
<rect width="18" height="20" fill="white"/>
</clipPath>
</defs>
</svg>
