<svg width="17" height="20" viewBox="0 0 17 20" fill="none" xmlns="http://www.w3.org/2000/svg">
<g clip-path="url(#clip0_2033_314)">
<path d="M2.76252 9.99998C2.76252 8.57498 3.7471 7.41665 4.95835 7.41665H7.79169V5.83331H4.95835C3.00335 5.83331 1.41669 7.69998 1.41669 9.99998C1.41669 12.3 3.00335 14.1666 4.95835 14.1666H7.79169V12.5833H4.95835C3.7471 12.5833 2.76252 11.425 2.76252 9.99998ZM5.66669 10.8333H11.3334V9.16665H5.66669V10.8333ZM12.0417 5.83331H9.20835V7.41665H12.0417C13.2529 7.41665 14.2375 8.57498 14.2375 9.99998C14.2375 11.425 13.2529 12.5833 12.0417 12.5833H9.20835V14.1666H12.0417C13.9967 14.1666 15.5834 12.3 15.5834 9.99998C15.5834 7.69998 13.9967 5.83331 12.0417 5.83331Z" fill="white" fill-opacity="0.7"/>
</g>
<defs>
<clipPath id="clip0_2033_314">
<rect width="17" height="20" fill="white"/>
</clipPath>
</defs>
</svg>
